<?xml version="1.0" encoding="utf-8"?>
<!-- Generator: Adobe Illustrator 23.0.2, SVG Export Plug-In . SVG Version: 6.00 Build 0)  -->
<svg version="1.1" id="Layer_1" xmlns="http://www.w3.org/2000/svg" xmlns:xlink="http://www.w3.org/1999/xlink" x="0px" y="0px"
	 viewBox="0 0 2500 2500" style="enable-background:new 0 0 2500 2500;" xml:space="preserve">
<style type="text/css">
	.st0{fill:#FF7977;}
</style>
<path class="st0" d="M377.5,715.9c0.6,53.9,13.2,107.2,32.9,157.2c15.2,38.7,32.8,76.4,50,114.3
	c136.9,298.4,280.6,593.6,430.9,885.4c21.1,40.8,41.8,81.8,64.2,121.9c21.9,39.2,47.5,76.9,80.6,107.5
	c52.8,50.3,123.6,80.3,196.2,84.8h33.5c74.8-3.7,147.8-35.1,201.5-87.4c31.9-30.2,56.5-67,77.9-105c22-39.5,42.4-79.9,63.2-120
	c100.9-195.8,198.8-393.1,293.7-591.9c56.6-118.9,112.7-238.1,166.6-358.2c22.4-50,42.6-101.8,50.2-156.4
	c14.1-92.2-6.1-189-55.4-268.2c-42.5-68.8-106.2-124.2-180.5-156.3c-58.1-25.1-121.2-36.2-184.4-32.6c-84.4,4.5-165.7,34.8-237.1,79
	c-79.6,48.9-147.7,113.9-211.1,181.9c-59-63.5-122.1-124.2-194.9-171.7c-70.4-46.3-150.6-79.8-234.9-87.8
	c-91.6-9.6-186.6,13.1-263.5,64.2c-68,45.1-120.7,109.8-151,185.6C386.3,611,376.7,663.3,377.5,715.9L377.5,715.9z M1249.7,751.5
	c23,27.1,43.3,56.4,63.6,85.5c34.3,50.2,65.4,102.8,90.4,158.2c20.5,46,37,94.4,43.4,144.6c4.7,39.8,3.6,81.4-11,119.2
	c-13.1,35.5-38.2,66.2-70.1,86.5c-75.9,49-184.1,43.7-252.8-15.7c-34.8-29.7-55.6-73.5-60.8-118.5c-6.8-59.9,6.8-120,27.7-175.9
	C1119.6,931.6,1182.2,838.7,1249.7,751.5L1249.7,751.5z M505.1,624.5c20.3-70,69-131.1,132.8-166.4c56.5-31.6,124-42.5,187.7-31.8
	c81.2,12.6,154,55.7,217.1,106.5c46.4,37.3,88.1,79.9,128.1,123.8c-63.2,79.9-122.7,163.5-168.1,254.8
	c-39.7,80-69.8,166.7-72.7,256.7c-1.6,57.1,9.1,115.2,35.8,166c34.9,67.9,97.5,120.1,169.2,145.3c67,23.9,141.4,26.1,209.8,6.6
	c64.4-18.2,123.3-57,163.6-110.7c35.5-46.8,55.7-104.4,60.4-162.7c7.2-84.1-13.8-167.9-45.7-245.2
	c-47.4-112.9-116.9-215.1-193.7-309.9c34.6-40,72.2-77.3,112.4-111.7c62.3-52.8,133.7-98.7,214.5-116.2
	c65.3-14.7,135.8-7.4,195.7,22.9c70.2,35,124.1,100.8,144.4,176.6c15.5,55.6,12.1,115.7-6.4,170.2c-15.4,45.1-36.2,88-55.7,131.4
	c-135.4,295.1-277.5,587.2-426.1,876c-22.2,43-44,86.2-67.4,128.4c-19.1,34.1-41.4,67.5-72.9,91.4c-34,26.5-76.1,40.5-119.2,39.7
	c-44.3,0.5-88.4-15.8-122.3-44.3c-33.5-27.8-56.1-65.8-76.4-103.8c-45.9-86.2-90-173.5-134.1-260.6
	c-125.9-249.2-246.9-500.8-362.9-754.8c-17.5-39.5-36.3-78.6-48.1-120.2C490.6,731.2,490.1,675.7,505.1,624.5L505.1,624.5z"/>
</svg>
